#Comment line ignore any data following # character 
#Hierarchical Translation and Rotation (.htr) file 
[Header]	
#Header keywords are followed by a single value 
FileType HTR		#Single word string
DataType HTRS		#Translation followed by rotation and scale data
FileVersion 1		#integer
NumSegments 84		#integer
NumFrames 2		#integer
DataFrameRate 30		#integer, data frame rate in this file
EulerRotationOrder ZYX
CalibrationUnits mm
RotationUnits Degrees
GlobalAxisofGravity Y
BoneLengthAxis Y
ScaleFactor 1.00
[SegmentNames&Hierarchy]
#CHILD	PARENT
MASTER GLOBAL
root MASTER
chest root
L_mid_tent01 root
R_mid_tent01 root
spine01 root
Bip01_Neck chest
L_humerus chest
R_humerus chest
weapon_bone chest
Bip01_Head Bip01_Neck
eye_left_bone Bip01_Head
eye_right_bone Bip01_Head
L_forearm L_humerus
L_front_hand L_forearm
L_weapon_bone L_forearm
L_front_hand01_01 L_front_hand
L_front_hand02_01 L_front_hand
L_front_hand03_01 L_front_hand
L_front_hand01_02 L_front_hand01_01
L_front_hand02_02 L_front_hand02_01
L_front_hand03_02 L_front_hand03_01
R_forearm R_humerus
R_front_hand R_forearm
R_weapon_bone R_forearm
R_front_hand01_01 R_front_hand
R_front_hand02_01 R_front_hand
R_front_hand03_01 R_front_hand
R_front_hand01_02 R_front_hand01_01
R_front_hand02_02 R_front_hand02_01
R_front_hand03_02 R_front_hand03_01
null_rope01_connect L_mid_tent01
Rope1_Seg01 null_rope01_connect
Rope1_Seg02 Rope1_Seg01
Rope1_Seg03 Rope1_Seg02
Rope1_Seg04 Rope1_Seg03
Rope1_Seg05 Rope1_Seg04
Rope1_Seg06 Rope1_Seg05
Rope1_Seg07 Rope1_Seg06
Rope1_Seg09 Rope1_Seg07
L_mid_hand01 Rope1_Seg09
L_mid_hand02 Rope1_Seg09
L_mid_hand03 Rope1_Seg09
null_rope02_connect R_mid_tent01
Rope2_Seg01 null_rope02_connect
Rope2_Seg02 Rope2_Seg01
Rope2_Seg03 Rope2_Seg02
Rope2_Seg04 Rope2_Seg03
Rope2_Seg05 Rope2_Seg04
Rope2_Seg06 Rope2_Seg05
Rope2_Seg07 Rope2_Seg06
Rope2_Seg09 Rope2_Seg07
R_mid_hand01 Rope2_Seg09
R_mid_hand02 Rope2_Seg09
R_mid_hand03 Rope2_Seg09
spine02 spine01
spine03 spine02
pelvis spine03
null_rope03_connect pelvis
null_rope04_connect pelvis
Rope3_Seg01 null_rope03_connect
Rope3_Seg02 Rope3_Seg01
Rope3_Seg03 Rope3_Seg02
Rope3_Seg04 Rope3_Seg03
Rope3_Seg05 Rope3_Seg04
Rope3_Seg06 Rope3_Seg05
Rope3_Seg07 Rope3_Seg06
Rope3_Seg08 Rope3_Seg07
Rope3_Seg09 Rope3_Seg08
R_rear_hand01 Rope3_Seg09
R_rear_hand02 Rope3_Seg09
R_rear_hand03 Rope3_Seg09
Rope4_Seg01 null_rope04_connect
Rope4_Seg02 Rope4_Seg01
Rope4_Seg03 Rope4_Seg02
Rope4_Seg04 Rope4_Seg03
Rope4_Seg05 Rope4_Seg04
Rope4_Seg06 Rope4_Seg05
Rope4_Seg07 Rope4_Seg06
Rope4_Seg08 Rope4_Seg07
Rope4_Seg09 Rope4_Seg08
L_rear_hand01 Rope4_Seg09
L_rear_hand02 Rope4_Seg09
L_rear_hand03 Rope4_Seg09
[BasePosition]
#SegmentName Tx, Ty, Tz, Rx, Ry, Rz, BoneLength
MASTER 0.000000 0.000000 0.000000 -90.000000 0.000000 0.000000 10.000000 
root 0.000000 0.000000 0.000000 0.000000 0.000000 0.000000 10.000000 
chest 0.000000 0.000000 0.000000 0.000000 0.000000 0.000000 10.000000 
L_mid_tent01 0.000000 0.000000 0.000000 0.000000 0.000000 0.000000 10.000000 
R_mid_tent01 0.000000 0.000000 0.000000 0.000000 0.000000 0.000000 10.000000 
spine01 0.000000 0.000000 0.000000 0.000000 0.000000 0.000000 10.000000 
Bip01_Neck 0.000000 0.000000 0.000000 0.000000 0.000000 0.000000 10.000000 
L_humerus 0.000000 0.000000 0.000000 0.000000 0.000000 0.000000 10.000000 
R_humerus 0.000000 0.000000 0.000000 0.000000 0.000000 0.000000 10.000000 
weapon_bone 0.000000 0.000000 0.000000 0.000000 0.000000 0.000000 10.000000 
Bip01_Head 0.000000 0.000000 0.000000 0.000000 0.000000 0.000000 10.000000 
eye_left_bone 0.000000 0.000000 0.000000 0.000000 0.000000 0.000000 10.000000 
eye_right_bone 0.000000 0.000000 0.000000 0.000000 0.000000 0.000000 10.000000 
L_forearm 0.000000 0.000000 0.000000 0.000000 0.000000 0.000000 10.000000 
L_front_hand 0.000000 0.000000 0.000000 0.000000 0.000000 0.000000 10.000000 
L_weapon_bone 0.000000 0.000000 0.000000 0.000000 0.000000 0.000000 10.000000 
L_front_hand01_01 0.000000 0.000000 0.000000 0.000000 0.000000 0.000000 10.000000 
L_front_hand02_01 0.000000 0.000000 0.000000 0.000000 0.000000 0.000000 10.000000 
L_front_hand03_01 0.000000 0.000000 0.000000 0.000000 0.000000 0.000000 10.000000 
L_front_hand01_02 0.000000 0.000000 0.000000 0.000000 0.000000 0.000000 10.000000 
L_front_hand02_02 0.000000 0.000000 0.000000 0.000000 0.000000 0.000000 10.000000 
L_front_hand03_02 0.000000 0.000000 0.000000 0.000000 0.000000 0.000000 10.000000 
R_forearm 0.000000 0.000000 0.000000 0.000000 0.000000 0.000000 10.000000 
R_front_hand 0.000000 0.000000 0.000000 0.000000 0.000000 0.000000 10.000000 
R_weapon_bone 0.000000 0.000000 0.000000 0.000000 0.000000 0.000000 10.000000 
R_front_hand01_01 0.000000 0.000000 0.000000 0.000000 0.000000 0.000000 10.000000 
R_front_hand02_01 0.000000 0.000000 0.000000 0.000000 0.000000 0.000000 10.000000 
R_front_hand03_01 0.000000 0.000000 0.000000 0.000000 0.000000 0.000000 10.000000 
R_front_hand01_02 0.000000 0.000000 0.000000 0.000000 0.000000 0.000000 10.000000 
R_front_hand02_02 0.000000 0.000000 0.000000 0.000000 0.000000 0.000000 10.000000 
R_front_hand03_02 0.000000 0.000000 0.000000 0.000000 0.000000 0.000000 10.000000 
null_rope01_connect 0.000000 0.000000 0.000000 0.000000 0.000000 0.000000 10.000000 
Rope1_Seg01 0.000000 0.000000 0.000000 0.000000 0.000000 0.000000 10.000000 
Rope1_Seg02 0.000000 0.000000 0.000000 0.000000 0.000000 0.000000 10.000000 
Rope1_Seg03 0.000000 0.000000 0.000000 0.000000 0.000000 0.000000 10.000000 
Rope1_Seg04 0.000000 0.000000 0.000000 0.000000 0.000000 0.000000 10.000000 
Rope1_Seg05 0.000000 0.000000 0.000000 0.000000 0.000000 0.000000 10.000000 
Rope1_Seg06 0.000000 0.000000 0.000000 0.000000 0.000000 0.000000 10.000000 
Rope1_Seg07 0.000000 0.000000 0.000000 0.000000 0.000000 0.000000 10.000000 
Rope1_Seg09 0.000000 0.000000 0.000000 0.000000 0.000000 0.000000 10.000000 
L_mid_hand01 0.000000 0.000000 0.000000 0.000000 0.000000 0.000000 10.000000 
L_mid_hand02 0.000000 0.000000 0.000000 0.000000 0.000000 0.000000 10.000000 
L_mid_hand03 0.000000 0.000000 0.000000 0.000000 0.000000 0.000000 10.000000 
null_rope02_connect 0.000000 0.000000 0.000000 0.000000 0.000000 0.000000 10.000000 
Rope2_Seg01 0.000000 0.000000 0.000000 0.000000 0.000000 0.000000 10.000000 
Rope2_Seg02 0.000000 0.000000 0.000000 0.000000 0.000000 0.000000 10.000000 
Rope2_Seg03 0.000000 0.000000 0.000000 0.000000 0.000000 0.000000 10.000000 
Rope2_Seg04 0.000000 0.000000 0.000000 0.000000 0.000000 0.000000 10.000000 
Rope2_Seg05 0.000000 0.000000 0.000000 0.000000 0.000000 0.000000 10.000000 
Rope2_Seg06 0.000000 0.000000 0.000000 0.000000 0.000000 0.000000 10.000000 
Rope2_Seg07 0.000000 0.000000 0.000000 0.000000 0.000000 0.000000 10.000000 
Rope2_Seg09 0.000000 0.000000 0.000000 0.000000 0.000000 0.000000 10.000000 
R_mid_hand01 0.000000 0.000000 0.000000 0.000000 0.000000 0.000000 10.000000 
R_mid_hand02 0.000000 0.000000 0.000000 0.000000 0.000000 0.000000 10.000000 
R_mid_hand03 0.000000 0.000000 0.000000 0.000000 0.000000 0.000000 10.000000 
spine02 0.000000 0.000000 0.000000 0.000000 0.000000 0.000000 10.000000 
spine03 0.000000 0.000000 0.000000 0.000000 0.000000 0.000000 10.000000 
pelvis 0.000000 0.000000 0.000000 0.000000 0.000000 0.000000 10.000000 
null_rope03_connect 0.000000 0.000000 0.000000 0.000000 0.000000 0.000000 10.000000 
null_rope04_connect 0.000000 0.000000 0.000000 0.000000 0.000000 0.000000 10.000000 
Rope3_Seg01 0.000000 0.000000 0.000000 0.000000 0.000000 0.000000 10.000000 
Rope3_Seg02 0.000000 0.000000 0.000000 0.000000 0.000000 0.000000 10.000000 
Rope3_Seg03 0.000000 0.000000 0.000000 0.000000 0.000000 0.000000 10.000000 
Rope3_Seg04 0.000000 0.000000 0.000000 0.000000 0.000000 0.000000 10.000000 
Rope3_Seg05 0.000000 0.000000 0.000000 0.000000 0.000000 0.000000 10.000000 
Rope3_Seg06 0.000000 0.000000 0.000000 0.000000 0.000000 0.000000 10.000000 
Rope3_Seg07 0.000000 0.000000 0.000000 0.000000 0.000000 0.000000 10.000000 
Rope3_Seg08 0.000000 0.000000 0.000000 0.000000 0.000000 0.000000 10.000000 
Rope3_Seg09 0.000000 0.000000 0.000000 0.000000 0.000000 0.000000 10.000000 
R_rear_hand01 0.000000 0.000000 0.000000 0.000000 0.000000 0.000000 10.000000 
R_rear_hand02 0.000000 0.000000 0.000000 0.000000 0.000000 0.000000 10.000000 
R_rear_hand03 0.000000 0.000000 0.000000 0.000000 0.000000 0.000000 10.000000 
Rope4_Seg01 0.000000 0.000000 0.000000 0.000000 0.000000 0.000000 10.000000 
Rope4_Seg02 0.000000 0.000000 0.000000 0.000000 0.000000 0.000000 10.000000 
Rope4_Seg03 0.000000 0.000000 0.000000 0.000000 0.000000 0.000000 10.000000 
Rope4_Seg04 0.000000 0.000000 0.000000 0.000000 0.000000 0.000000 10.000000 
Rope4_Seg05 0.000000 0.000000 0.000000 0.000000 0.000000 0.000000 10.000000 
Rope4_Seg06 0.000000 0.000000 0.000000 0.000000 0.000000 0.000000 10.000000 
Rope4_Seg07 0.000000 0.000000 0.000000 0.000000 0.000000 0.000000 10.000000 
Rope4_Seg08 0.000000 0.000000 0.000000 0.000000 0.000000 0.000000 10.000000 
Rope4_Seg09 0.000000 0.000000 0.000000 0.000000 0.000000 0.000000 10.000000 
L_rear_hand01 0.000000 0.000000 0.000000 0.000000 0.000000 0.000000 10.000000 
L_rear_hand02 0.000000 0.000000 0.000000 0.000000 0.000000 0.000000 10.000000 
L_rear_hand03 0.000000 0.000000 0.000000 0.000000 0.000000 0.000000 10.000000 
#Beginning of Data. Separated by tabs
#Fr	Tx	Ty	Tz	Rx	Ry	Rz	SF
[MASTER]
20 0.000724 -6737.508301 -288.157654 0.001660 0.001660 0.001660 6743.667480
21 0.000751 -6996.144531 -260.900970 0.001660 0.001660 0.001660 7001.007813
[root]
20 -32.917904 -56.271156 1502.020630 -101.045624 -48.403019 -86.643944 1503.434692
21 -32.001408 -56.435749 1501.907959 -101.181915 -47.297798 -86.890099 1503.308472
[chest]
20 -84.512650 -34.090519 0.000000 -11.051289 -17.176229 170.358765 91.129311
21 -84.512650 -34.090519 0.000000 -9.756181 -13.890186 171.788879 91.129311
[L_mid_tent01]
20 27.299170 22.179106 -249.918716 8.029678 36.720924 89.418022 252.381699
21 27.299171 22.179106 -249.918716 8.405052 36.741379 90.135887 252.381699
[R_mid_tent01]
20 23.228794 24.509907 226.238495 -107.418968 -69.997154 0.845602 228.744751
21 23.228794 24.509907 226.238495 -137.425079 -73.658356 30.883291 228.744751
[spine01]
20 -0.361383 -0.195265 0.000000 0.002002 0.001225 27.060982 0.410763
21 -0.361383 -0.195265 0.000000 0.001996 0.001236 26.466488 0.410763
[Bip01_Neck]
20 165.484543 71.581718 0.000119 176.643677 -1.657967 43.431911 180.302734
21 165.484543 71.581718 0.000119 176.643677 -1.657967 43.431911 180.302734
[L_humerus]
20 -13.983130 -135.272980 -120.471481 157.873276 70.266197 -109.481964 181.680161
21 -13.983130 -135.272980 -120.471481 158.097290 68.924309 -109.344681 181.680161
[R_humerus]
20 -13.983309 -135.273102 125.287651 -173.615936 -69.643753 -90.606148 184.909012
21 -13.983309 -135.273102 125.287651 -172.736359 -67.847183 -91.608414 184.909012
[weapon_bone]
20 235.964890 -300.705902 0.000000 0.000000 -89.951546 -128.212341 382.234833
21 235.964890 -300.705902 0.000000 0.000000 -89.951546 -128.212341 382.234833
[Bip01_Head]
20 213.332520 186.026260 7.763253 21.144604 4.718148 -43.860359 283.155090
21 213.333725 186.023102 7.804047 17.569284 4.291360 -43.870216 283.155029
[eye_left_bone]
20 -24.626970 125.451866 -64.772606 0.000000 -90.000000 -99.840431 143.318359
21 -24.626970 125.451866 -64.772606 0.000000 -90.000000 -99.840431 143.318359
[eye_right_bone]
20 -24.626970 125.451866 64.327362 0.000000 -89.965736 80.156380 143.117676
21 -24.626970 125.451866 64.327362 0.000000 -89.965736 80.156380 143.117676
[L_forearm]
20 322.776093 0.000000 -0.000119 0.000476 0.002299 -66.616585 322.776093
21 322.776093 0.000000 -0.000119 0.000488 0.002296 -65.978630 322.776093
[L_front_hand]
20 241.149185 -0.042021 -3.300071 -1.032301 -1.833574 -27.424459 241.171753
21 241.149185 -0.042021 -3.300071 65.157646 -1.834695 -27.424025 241.171753
[L_weapon_bone]
20 156.183838 0.000000 0.000000 0.000014 0.000007 0.000001 156.183838
21 156.183838 0.000000 0.000000 0.000014 0.000007 0.000001 156.183838
[L_front_hand01_01]
20 86.095154 20.947098 -0.655860 -0.334039 -0.500940 71.473785 88.609184
21 86.095154 20.947098 -0.655860 -0.343298 -0.494452 72.684830 88.609184
[L_front_hand02_01]
20 86.935165 -11.437475 24.513514 148.678986 -58.017021 -54.691486 91.046425
21 86.935165 -11.437475 24.513514 150.381821 -58.634853 -56.693264 91.046425
[L_front_hand03_01]
20 86.637497 -14.123976 -20.424902 -148.599625 56.232182 -56.378220 90.126129
21 86.637497 -14.123976 -20.424902 -150.184570 56.852535 -58.280544 90.126129
[L_front_hand01_02]
20 71.020905 -0.000179 0.000030 0.000249 0.002334 -77.804855 71.020905
21 71.020905 -0.000179 0.000030 0.000062 0.002346 -86.948784 71.020905
[L_front_hand02_02]
20 71.020927 -0.000119 0.000060 0.000249 0.002334 -77.804855 71.020927
21 71.020927 -0.000119 0.000060 0.000062 0.002346 -86.948784 71.020927
[L_front_hand03_02]
20 71.020905 -0.000060 0.000060 0.000249 0.002334 -77.804855 71.020905
21 71.020905 -0.000060 0.000060 0.000062 0.002346 -86.948784 71.020905
[R_forearm]
20 322.776428 -0.000060 0.000030 0.203513 -0.060610 -74.506477 322.776428
21 322.776428 -0.000060 0.000030 0.203295 -0.061337 -74.096947 322.776428
[R_front_hand]
20 238.847015 -0.006795 2.210259 139.822495 -10.642515 -26.315258 238.857239
21 238.847015 -0.006795 2.210259 71.532249 -10.644909 -26.315041 238.857239
[R_weapon_bone]
20 155.664093 0.002503 -0.000030 0.003487 0.001180 -90.988930 155.664078
21 155.664093 0.002503 -0.000030 0.003487 0.001180 -90.988930 155.664078
[R_front_hand01_01]
20 87.624611 14.231146 22.918642 -145.613358 -56.745754 51.157841 91.683487
21 87.624611 14.231146 22.918642 -148.082672 -57.779972 54.094101 91.683487
[R_front_hand02_01]
20 89.356956 14.367283 -19.491137 146.110535 55.126778 53.601849 92.579636
21 89.356956 14.367283 -19.491137 148.442673 56.148640 56.425144 92.579636
[R_front_hand03_01]
20 87.286232 -22.307278 -0.143439 0.111710 -0.441000 -69.369507 90.091743
21 87.286232 -22.307278 -0.143439 0.126428 -0.436724 -71.261192 90.091743
[R_front_hand01_02]
20 71.020905 0.000060 0.000119 0.002334 0.000249 77.809143 71.020905
21 71.020905 0.000060 0.000119 0.002346 0.000062 86.953362 71.020905
[R_front_hand02_02]
20 71.020844 -0.000030 -0.000119 0.002334 0.000249 77.809143 71.020836
21 71.020844 -0.000030 -0.000119 0.002346 0.000062 86.953362 71.020836
[R_front_hand03_02]
20 71.020905 0.000000 0.000030 0.002334 0.000249 77.809143 71.020905
21 71.020905 0.000000 0.000030 0.002346 0.000062 86.953362 71.020905
[null_rope01_connect]
20 328.732483 0.000000 -0.000238 -121.958427 -44.621124 175.298050 328.732483
21 328.732483 0.000000 -0.000238 -123.095047 -44.150509 174.713501 328.732483
[Rope1_Seg01]
20 -0.000026 -0.000012 0.000153 106.657608 -0.999383 -169.348862 0.000155
21 -0.000027 -0.000011 0.000153 105.221275 -7.907605 -174.702301 0.000155
[Rope1_Seg02]
20 139.999863 -0.000179 0.000000 18.748732 -14.967716 -17.273153 139.999863
21 139.999863 -0.000179 0.000000 14.761586 -11.204424 -19.511702 139.999863
[Rope1_Seg03]
20 139.999924 0.000060 -0.000060 9.399374 -9.717906 -8.229762 139.999924
21 139.999924 0.000060 -0.000060 11.800381 -7.870157 -14.329988 139.999924
[Rope1_Seg04]
20 139.999924 -0.000060 -0.000119 6.530558 -12.644843 -2.521951 139.999924
21 139.999924 -0.000060 -0.000119 7.768246 -11.562165 -4.239254 139.999924
[Rope1_Seg05]
20 139.999832 0.000119 -0.000060 3.196833 -12.418870 1.136894 139.999832
21 139.999832 0.000119 -0.000060 2.791646 -14.423449 4.486776 139.999832
[Rope1_Seg06]
20 139.999954 0.000119 -0.000060 1.121151 -6.501901 0.611723 139.999954
21 139.999954 0.000119 -0.000060 0.902910 -8.546363 2.677134 139.999954
[Rope1_Seg07]
20 139.999985 0.000060 0.000000 0.512194 -4.026809 0.399359 139.999985
21 139.999985 0.000060 0.000000 0.330287 -5.014051 1.313951 139.999985
[Rope1_Seg09]
20 121.602913 0.000119 -0.000089 -89.793175 -1.359789 0.847147 121.602913
21 121.602913 0.000119 -0.000089 -89.793175 -1.359789 0.847147 121.602913
[L_mid_hand01]
20 103.859421 1.038730 8.195221 130.544373 -67.584534 -38.866943 104.187431
21 103.859421 1.038730 8.195221 130.544388 -67.584534 -38.866955 104.187431
[L_mid_hand02]
20 105.572853 -4.139662 -10.864139 -168.923172 43.409309 -73.498886 106.211075
21 105.572853 -4.139662 -10.864139 -168.923172 43.409309 -73.498894 106.211075
[L_mid_hand03]
20 104.641464 17.579376 -3.913581 -6.012626 17.808172 74.893661 106.179977
21 104.641464 17.579376 -3.913581 -6.012627 17.808174 74.893669 106.179977
[null_rope02_connect]
20 328.732849 0.000179 -0.000119 -115.034050 13.474768 -14.595853 328.732849
21 328.732849 0.000179 -0.000119 -115.844902 19.922859 -6.555477 328.732849
[Rope2_Seg01]
20 0.000095 0.000451 0.000000 -124.930305 34.033371 -33.302418 0.000461
21 0.000095 0.000469 0.000000 -103.295479 27.340260 -31.479467 0.000478
[Rope2_Seg02]
20 139.999741 -0.000060 -0.000119 10.934360 -7.830765 -1.660280 139.999756
21 139.999741 -0.000060 -0.000119 7.663053 -11.342447 1.391494 139.999756
[Rope2_Seg03]
20 140.000107 0.000030 0.000000 7.673309 -11.881130 -0.224846 140.000107
21 140.000107 0.000030 0.000000 3.032007 -14.989477 3.905100 140.000107
[Rope2_Seg04]
20 139.999802 0.000000 -0.000060 6.166035 -17.363930 0.442071 139.999802
21 139.999802 0.000000 -0.000060 2.307319 -17.598852 3.965308 139.999802
[Rope2_Seg05]
20 139.999985 -0.000060 0.000119 0.962648 -18.185247 4.642439 139.999985
21 139.999985 -0.000060 0.000119 -1.296268 -12.670354 7.012141 139.999985
[Rope2_Seg06]
20 139.999893 -0.000030 -0.000119 -2.251467 -15.668247 11.308473 139.999893
21 139.999893 -0.000030 -0.000119 -2.039817 -9.718079 10.499917 139.999893
[Rope2_Seg07]
20 139.999893 0.000060 -0.000060 -0.718038 -12.782555 8.769811 139.999893
21 139.999893 0.000060 -0.000060 -0.588090 -8.626796 7.610247 139.999893
[Rope2_Seg09]
20 121.338966 0.000089 -0.000060 33.793236 -1.359788 -0.847141 121.338966
21 121.338966 0.000089 -0.000060 33.793236 -1.359788 -0.847141 121.338966
[R_mid_hand01]
20 104.680779 11.144459 -10.335981 -17.390713 44.882233 68.793839 105.778534
21 104.680779 11.144459 -10.335981 -16.212063 45.237247 70.462852 105.778534
[R_mid_hand02]
20 104.070427 2.443552 8.231699 50.967758 -66.804398 37.227440 104.424065
21 104.070427 2.443552 8.231699 49.067368 -67.749771 39.286453 104.424065
[R_mid_hand03]
20 106.028137 -11.221827 -5.996406 -176.756866 15.486363 -75.308266 106.788818
21 106.028137 -11.221827 -5.996406 -177.101105 15.551026 -76.585571 106.788818
[spine02]
20 129.756927 0.001550 0.000119 0.439091 -4.036273 -14.087267 129.756927
21 129.756927 0.001550 0.000119 0.425615 -4.037815 -13.890686 129.756927
[spine03]
20 78.613533 0.081689 -4.899045 1.946325 3.807225 17.209751 78.766083
21 78.613503 0.081700 -4.899047 1.938559 3.810830 17.089441 78.766045
[pelvis]
20 169.435242 0.051022 0.000000 -0.065240 -0.179095 15.569348 169.435257
21 169.435242 0.051022 0.000000 -0.063629 -0.179400 15.322256 169.435257
[null_rope03_connect]
20 -1.257226 -2.466202 137.391083 -146.397430 -82.391685 -120.724091 137.418976
21 -1.257226 -2.466202 137.391083 -146.105316 -82.063576 -121.353340 137.418976
[null_rope04_connect]
20 -1.259640 -2.480268 -137.844437 -146.397430 -82.391685 -120.724091 137.872513
21 -1.259640 -2.480268 -137.844437 -146.105316 -82.063576 -121.353340 137.872513
[Rope3_Seg01]
20 -0.000019 0.000402 -0.000049 117.726768 -52.213749 15.635782 0.000405
21 -0.000019 0.000425 -0.000044 141.930176 -53.402107 0.297771 0.000428
[Rope3_Seg02]
20 139.999924 -0.000119 0.000060 -7.872087 -6.166201 -15.767176 139.999924
21 139.999924 -0.000119 0.000060 -13.257035 -1.842693 -15.262980 139.999924
[Rope3_Seg03]
20 139.999924 -0.000119 0.000119 7.149763 -5.841986 -6.444630 139.999924
21 139.999924 -0.000119 0.000119 -13.170905 0.277546 -8.102288 139.999924
[Rope3_Seg04]
20 139.999924 0.000119 0.000000 -15.205665 -2.280854 -6.015047 139.999924
21 139.999924 0.000119 0.000000 -23.315529 2.643835 -7.594667 139.999924
[Rope3_Seg05]
20 139.999924 -0.000238 0.000060 -103.658379 10.932056 -18.880720 139.999924
21 139.999924 -0.000238 0.000060 -68.007240 19.754723 -18.787487 139.999924
[Rope3_Seg06]
20 139.999893 -0.000119 -0.000060 -2.308427 19.208857 20.410042 139.999893
21 139.999893 -0.000119 -0.000060 -11.176363 24.381208 11.141967 139.999893
[Rope3_Seg07]
20 139.999771 0.000060 -0.000119 0.051717 8.777955 9.968405 139.999771
21 139.999771 0.000060 -0.000119 -1.249419 9.791557 7.276385 139.999771
[Rope3_Seg08]
20 139.999985 -0.000060 0.000000 0.361813 4.580707 5.284427 139.999985
21 139.999985 -0.000060 0.000000 -0.057499 4.879303 3.841270 139.999985
[Rope3_Seg09]
20 90.185997 -0.000179 -0.000060 89.793228 -1.359877 -0.847183 90.185997
21 90.185997 -0.000179 -0.000060 89.793228 -1.359877 -0.847183 90.185997
[R_rear_hand01]
20 103.366196 -6.073594 -10.757982 -177.218140 24.518015 -72.727440 104.101845
21 103.366196 -6.073594 -10.757982 -177.714203 24.565960 -73.910950 104.101845
[R_rear_hand02]
20 100.509819 12.039542 -7.992327 -13.655105 36.621037 70.859291 101.543350
21 100.509819 12.039542 -7.992327 -12.874829 36.868488 72.167213 101.543350
[R_rear_hand03]
20 101.539970 5.215704 5.435467 72.467628 -70.792900 20.476631 101.819031
21 101.539970 5.215704 5.435467 71.484581 -71.816628 21.513813 101.819031
[Rope4_Seg01]
20 0.000010 0.000038 -0.000114 62.700405 -25.699862 -133.485031 0.000121
21 0.000010 0.000038 -0.000114 61.675358 -24.313297 -133.299072 0.000121
[Rope4_Seg02]
20 139.999985 0.000060 0.000119 10.519903 -19.958258 1.650544 139.999985
21 139.999985 0.000060 0.000119 9.287369 -18.021255 1.962422 139.999985
[Rope4_Seg03]
20 139.999924 0.000000 -0.000238 45.303963 -29.019394 12.828461 139.999924
21 139.999924 0.000000 -0.000238 39.836418 -27.884274 12.538957 139.999924
[Rope4_Seg04]
20 139.999985 0.000000 0.000119 33.704189 -6.396334 23.933758 139.999985
21 139.999985 0.000000 0.000119 35.776287 -9.094404 25.478363 139.999985
[Rope4_Seg05]
20 139.999802 -0.000060 -0.000119 23.620354 -10.349871 18.688038 139.999802
21 139.999802 -0.000060 -0.000119 25.926287 -12.662909 21.088982 139.999802
[Rope4_Seg06]
20 139.999924 0.000000 0.000060 17.837694 -5.742556 17.895048 139.999924
21 139.999924 0.000000 0.000060 16.200083 -4.878651 17.027357 139.999924
[Rope4_Seg07]
20 139.999802 0.000000 0.000000 5.514214 1.515871 7.706156 139.999802
21 139.999802 0.000000 0.000000 4.636715 1.393728 6.635437 139.999802
[Rope4_Seg08]
20 139.999924 0.000000 0.000119 0.886887 1.252368 4.013587 139.999924
21 139.999924 0.000000 0.000119 0.562676 1.043534 3.464526 139.999924
[Rope4_Seg09]
20 90.185791 0.000060 0.000060 -135.617828 2.228885 0.850567 90.185791
21 90.185791 0.000060 0.000060 -135.617828 2.228885 0.850567 90.185791
[L_rear_hand01]
20 101.696655 -8.392275 -7.654577 -12.874829 -36.868488 107.832764 102.329041
21 101.696655 -8.392275 -7.654577 -12.874829 -36.868488 107.832764 102.329041
[L_rear_hand02]
20 102.726799 -1.568258 5.773216 71.484581 71.816628 158.486160 102.900848
21 102.726799 -1.568258 5.773216 71.484581 71.816628 158.486160 102.900848
[L_rear_hand03]
20 104.552910 9.721220 -10.420293 -177.714203 -24.565960 -106.089035 105.519653
21 104.552910 9.721220 -10.420293 -177.714203 -24.565960 -106.089035 105.519653
